<svg xmlns="http://www.w3.org/2000/svg" viewBox="0 0 340.79 129.45"><defs><style>.cls-1{fill:#004fa3;}.cls-2{fill:#00ab67;}.cls-3,.cls-4,.cls-5,.cls-6,.cls-7{fill:none;stroke-linecap:round;}.cls-3,.cls-7{stroke:#00ab67;}.cls-3,.cls-4,.cls-5,.cls-6{stroke-linejoin:round;}.cls-3,.cls-4,.cls-5,.cls-7{stroke-width:3.07px;}.cls-4{stroke:#004fa3;}.cls-5,.cls-6{stroke:#ef3e33;}.cls-6{stroke-width:2.76px;}</style></defs><g id="Layer_2" data-name="Layer 2"><path class="cls-1" d="M133.61,74.86V40.21h9.65c5.42,0,8.21,2.2,8.21,8.3,0,4.18-.67,7.06-5,8.26v.09c4.56,1,5.76,4,5.76,8.35,0,6.24-3,9.65-8.79,9.65Zm9-19.25c4.41,0,5.81-3,5.81-7,0-5.76-3.17-5.85-5.62-5.85h-6.1V55.61Zm-5.91,16.66h4.9c5.09,0,7.54-1.73,7.54-6.82,0-3.07-.92-7.24-6.2-7.24h-6.24Z"/><path class="cls-1" d="M159.53,63.34v1.87c0,3.36.91,7.83,5.47,7.83,3.6,0,5.38-2.31,5.33-5.57h3c-.34,5.86-3.51,7.87-8.36,7.87-4.17,0-8.35-1.68-8.35-9V60.37c0-7,2.93-10.23,8.35-10.23,8.36,0,8.36,6,8.36,13.2ZM170.48,61c0-5.38-.87-8.59-5.48-8.59s-5.47,3.21-5.47,8.59Z"/><path class="cls-1" d="M181.47,74.86h-2.88V50.62h2.88v3h.09a7,7,0,0,1,5.86-3.46c6,0,6.62,4.47,6.62,7.63V74.86h-2.88V57.92c0-2.83-1.1-5.47-4.46-5.47-2.59,0-5.23,1.77-5.23,7.2Z"/><path class="cls-1" d="M210.89,40.21h14.64V42.8H214v13h10.75v2.59H214V74.86h-3.07Z"/><path class="cls-1" d="M232.3,53.89h.09a7.37,7.37,0,0,1,6.68-3.75v2.93c-4.08-.34-6.77,2.11-6.77,6.19v15.6h-2.88V50.62h2.88Z"/><path class="cls-1" d="M255.1,71.89H255a7.78,7.78,0,0,1-6.86,3.45c-4.32,0-6.67-2.93-6.67-7.15,0-8.5,8.54-7.63,13.44-8v-2c0-3.55-1.06-5.71-4.9-5.71-2.64,0-4.75,1.29-4.75,4.17h-3.07c.23-4.65,3.84-6.48,8.06-6.48,2.45,0,7.54.24,7.54,6.43v12.2a53.18,53.18,0,0,0,.28,6.09h-3Zm-.19-9.41c-4.13.14-10.37-.34-10.37,5.57,0,2.73,1.39,5,4.37,5a6.23,6.23,0,0,0,6-6.15Z"/><path class="cls-1" d="M266.76,74.86h-2.88V50.62h2.88v3h.1a7,7,0,0,1,5.85-3.46c6,0,6.63,4.47,6.63,7.63V74.86h-2.88V57.92c0-2.83-1.11-5.47-4.47-5.47-2.59,0-5.23,1.77-5.23,7.2Z"/><path class="cls-1" d="M285.29,40.21h2.88V61.33h.09l8.36-10.71H300l-8.6,10.8,9.17,13.44H296.9l-8.64-13.2h-.09v13.2h-2.88Z"/><path class="cls-1" d="M304.82,74.86V40.21h2.88V74.86Z"/><path class="cls-1" d="M315.14,43.85V40.21h3.56v3.64Zm.34,31V50.62h2.88V74.86Z"/><path class="cls-1" d="M328.05,74.86h-2.88V50.62h2.88v3h.1A7,7,0,0,1,334,50.14c6,0,6.62,4.47,6.62,7.63V74.86h-2.88V57.92c0-2.83-1.1-5.47-4.46-5.47-2.6,0-5.24,1.77-5.24,7.2Z"/><path class="cls-2" d="M146,82.87V85h-5v16.85H138.6V85h-5v-2.1Z"/><path class="cls-2" d="M147.74,95.89c0,3.7,1,4.44,2.68,4.44a2.39,2.39,0,0,0,2.31-2.52h2.36c0,2.94-1.84,4.27-4.62,4.27s-5-.84-5-6.69c0-3.88.45-7.09,5-7.09,3.78,0,4.73,2.08,4.73,6.46v1.13Zm5.17-1.63c0-3.86-1.07-4.33-2.65-4.33-1.36,0-2.49.66-2.52,4.33Z"/><path class="cls-2" d="M165.17,92.82c.05-2.18-1-2.76-1.84-2.76-1.65,0-2.78.79-2.78,4.41,0,4.31.55,5.86,2.78,5.86.5,0,2-.53,1.92-2.92h2.26c.08,3.73-2.71,4.67-4.18,4.67-2.8,0-5-.84-5-6.69,0-3.88.45-7.09,5-7.09,2.66,0,4.2,1.55,4.07,4.52Z"/><path class="cls-2" d="M178,101.82v-9c0-1.62-.52-2.78-2.36-2.78-2.15,0-2.7,1.73-2.7,4v7.79h-2.15V82.87H173v7.4h.1a3.5,3.5,0,0,1,3.6-2c2.26,0,3.52,1.13,3.52,4.12v9.4Z"/><path class="cls-2" d="M190.63,101.82V92.63c0-1.41-.49-2.57-2.33-2.57-2.36,0-2.71,2.1-2.71,3.91v7.85h-2.15V91.32c0-.92-.05-1.84-.13-2.75h2.28v1.7h.11a3.5,3.5,0,0,1,3.54-2c2.84,0,3.55,1.71,3.55,4.33v9.19Z"/><path class="cls-2" d="M195.67,95.39c0-3.88.45-7.09,5-7.09s5,3.21,5,7.09c0,5.85-2.23,6.69-5,6.69S195.67,101.24,195.67,95.39Zm7.83-.92c0-3.62-1.13-4.41-2.79-4.41s-2.78.79-2.78,4.41c0,4.31.55,5.86,2.78,5.86S203.5,98.78,203.5,94.47Z"/><path class="cls-2" d="M210.74,101.82h-2.15V82.87h2.15Z"/><path class="cls-2" d="M213.58,95.39c0-3.88.44-7.09,5-7.09s5,3.21,5,7.09c0,5.85-2.24,6.69-5,6.69S213.58,101.24,213.58,95.39Zm7.82-.92c0-3.62-1.13-4.41-2.78-4.41s-2.79.79-2.79,4.41c0,4.31.55,5.86,2.79,5.86S221.4,98.78,221.4,94.47Z"/><path class="cls-2" d="M233.55,88.57h2.16v14.59c0,3-2,3.68-4.89,3.68-2.2,0-4.2-1.11-4-3.55h2.41a1.85,1.85,0,0,0,2,1.92,2.12,2.12,0,0,0,2.31-2.29v-2.75h-.08a3.3,3.3,0,0,1-2.91,1.65c-3.6,0-4.31-3.1-4.31-7,0-6.09,3.08-6.49,4.15-6.49a3.2,3.2,0,0,1,3.1,1.89h.05ZM231,90.09c-2.44,0-2.52,2.94-2.52,4.7,0,4.25,1,5.25,2.58,5.25,2.59,0,2.51-3.07,2.51-4.91S233.74,90.09,231,90.09Z"/><path class="cls-2" d="M243.13,99.35h.06l3.17-10.78h2.34l-6,18.27h-2.23l1.49-5-4.49-13.25H240Z"/><path class="cls-1" d="M256.13,101.82V82.87h5.62c2.54,0,5.27.94,5.27,5.41,0,4.3-3.36,5.19-5.3,5.19h-3.18v8.35Zm2.41-10.45h2.65a3,3,0,0,0,3.36-3.22c0-2.89-2.15-3.18-2.67-3.18h-3.34Z"/><path class="cls-1" d="M272.85,82.87h3.07l6.17,18.95h-2.7L278,97.31H270.7l-1.42,4.51h-2.44Zm1.47,2.23h-.05l-3,10.11h6.07Z"/><path class="cls-2" d="M286.08,90.56h.06c.89-2,2-2.26,4.09-2.26v2.23a9,9,0,0,0-1.15-.13c-2.39,0-3,1.81-3,3.6v7.82h-2.15V88.57h2.15Z"/><path class="cls-2" d="M292.3,88.57V86l2.16-1v3.52h2.88v1.62h-2.88V98.3c0,.84,0,1.92,2,1.92.16,0,.5,0,1-.1v1.65c-.71,0-1.42.21-2.13.21-2,0-3-.84-3-2.36V90.19h-2.17V88.57Z"/><path class="cls-2" d="M306,101.82V92.63c0-1.41-.5-2.57-2.33-2.57-2.37,0-2.71,2.1-2.71,3.91v7.85h-2.15V91.32c0-.92,0-1.84-.13-2.75H301v1.7h.11a3.5,3.5,0,0,1,3.54-2c2.84,0,3.55,1.71,3.55,4.33v9.19Z"/><path class="cls-2" d="M313.54,95.89c0,3.7,1,4.44,2.68,4.44a2.39,2.39,0,0,0,2.31-2.52h2.36c0,2.94-1.84,4.27-4.62,4.27s-5-.84-5-6.69c0-3.88.45-7.09,5-7.09,3.78,0,4.73,2.08,4.73,6.46v1.13Zm5.17-1.63c0-3.86-1.08-4.33-2.65-4.33-1.36,0-2.49.66-2.52,4.33Z"/><path class="cls-2" d="M326.27,90.56h.05c.9-2,2-2.26,4.1-2.26v2.23a9,9,0,0,0-1.16-.13c-2.38,0-3,1.81-3,3.6v7.82h-2.15V88.57h2.15Z"/><path class="cls-2" d="M336.17,102.08c-2.86,0-4.65-1.26-4.57-4.3H334c0,.76,0,2.55,2.21,2.55a2,2,0,0,0,2.28-2c0-2.36-6.61-2.41-6.61-6.37,0-1.4.83-3.63,4.56-3.63,2.37,0,4.39,1.13,4.2,3.76h-2.39a1.86,1.86,0,0,0-2.07-2.13,1.82,1.82,0,0,0-2.05,1.79c0,2.33,6.62,2.28,6.62,6.32C340.79,101,338.79,102.08,336.17,102.08Z"/><line class="cls-3" x1="7.25" y1="100.12" x2="24.35" y2="100.11"/><path class="cls-4" d="M90.38,6.2c8.06,2.31,6.72,16.3,6.14,19.59-.72,4.13,2.08,9.73,5.38,11.52,4.27,2.31,10.17,10.57,6.53,21.5-1.92,5.76.76,7.68,5.76,14.21s4.6,19.58-2.31,27.26H92"/><path class="cls-5" d="M63.27,101A24.61,24.61,0,0,0,84.65,76.71V67.63l2.9-.28c2.68-2.31,3.07-7.3,3.07-7.3V41.77h-6V26C84.6,12.5,73.37,1.54,59.51,1.54S34.42,12.5,34.42,26"/><path class="cls-5" d="M34.42,26l0,14.09s13.66-5,18.33,6"/><polyline class="cls-5" points="56.51 57.52 56.51 75.95 63.42 75.95"/><path class="cls-5" d="M79.85,41.55a11.22,11.22,0,0,0-11.55,0"/><path class="cls-6" d="M33.88,52.63c.39,3.21,3.82,5.72,8,5.72s7.62-2.51,8-5.72Z"/><path class="cls-6" d="M66.63,52.63c.39,3.21,3.82,5.72,8,5.72s7.62-2.51,8-5.72Z"/><path class="cls-5" d="M66,52.59a17,17,0,0,0-7.56-2,18.24,18.24,0,0,0-7.75,1.93"/><path class="cls-3" d="M22.57,25.79c.72,4.13-2.08,9.73-5.38,11.52C12.92,39.62,7,47.88,10.67,58.81,12.59,64.57,9.9,66.49,4.91,73h0C0,79.48.29,92.3,7,100"/><path class="cls-3" d="M28.71,6.2a7.18,7.18,0,0,0-3.46,2.21"/><path class="cls-3" d="M25.25,8.41c-4.15,4.72-3.15,14.67-2.68,17.38"/><path class="cls-7" d="M24.35,100.11c2,14.61,17.19,27.8,32.35,27.8,1,0,2.06,0,3.07-.15"/><path class="cls-4" d="M92,100.28c-5,9.43-16.8,16-28.24,16A29.71,29.71,0,0,1,34.17,89.39H17.27l-.6,0C15.49,83.34,16.54,77,19.57,73h0c5-6.53,7.68-8.45,5.76-14.21-1.7-5.09-4-8.85.75-14.85"/></g></svg>