<svg width="139" height="42" viewBox="0 0 139 42" fill="none" xmlns="http://www.w3.org/2000/svg">
<path d="M20.9846 41C32.0218 41 40.9692 32.0457 40.9692 21C40.9692 9.9543 32.0218 1 20.9846 1C9.9474 1 1 9.9543 1 21C1 32.0457 9.9474 41 20.9846 41Z" fill="white" stroke="#231F20" stroke-width="2" stroke-miterlimit="10"/>
<path d="M20.9648 40.7233C31.3783 40.7233 39.8201 32.1031 39.8201 21.4696C39.8201 10.836 31.3783 2.21582 20.9648 2.21582C10.5512 2.21582 2.10938 10.836 2.10938 21.4696C2.10938 32.1031 10.5512 40.7233 20.9648 40.7233Z" fill="white"/>
<path d="M22.6298 30.1042H19.7109V20.8291H22.6298V30.1042Z" fill="#27AAE1"/>
<path d="M21.2222 19.4216C22.54 19.4216 23.6084 18.3525 23.6084 17.0336C23.6084 15.7147 22.54 14.6455 21.2222 14.6455C19.9043 14.6455 18.8359 15.7147 18.8359 17.0336C18.8359 18.3525 19.9043 19.4216 21.2222 19.4216Z" fill="#27AAE1"/>
<path d="M20.9204 30.9143C18.9177 30.9143 16.8936 30.9143 14.8909 30.9143C14.6779 30.9143 14.5926 30.829 14.4648 30.6797C13.9109 29.8908 13.783 28.9527 13.5913 28.0358C13.5061 27.652 13.4421 27.2469 13.3569 26.8631C13.3356 26.7352 13.2291 26.6286 13.1226 26.5433C11.5459 25.2853 10.3741 23.7074 9.56453 21.8738C9.0532 20.7011 8.71231 19.4857 8.56317 18.2064C8.22228 14.9015 9.11711 11.9164 11.0772 9.27248C12.7604 6.99103 14.9974 5.45585 17.7458 4.70958C21.5595 3.6648 25.0963 4.34711 28.2708 6.71385C30.9127 8.67547 32.5958 11.2981 33.2137 14.539C33.9594 18.377 33.0006 21.8524 30.5292 24.8802C30.0178 25.5198 29.3574 26.0529 28.7821 26.6286C28.7182 26.6925 28.6543 26.7991 28.633 26.9057C28.3986 27.8439 28.2282 28.7821 27.9512 29.6989C27.8234 30.104 27.5464 30.4665 27.312 30.8503C27.2694 30.9143 27.1203 30.9356 27.0138 30.9356C24.9897 30.9356 22.9657 30.9356 20.9204 30.9356V30.9143ZM24.9045 29.571C24.9258 29.4644 24.9684 29.3578 24.9897 29.2725C25.2667 27.8439 25.565 26.4367 25.8419 25.0081C25.8846 24.7522 26.0124 24.5603 26.2468 24.4111C26.4811 24.2831 26.6942 24.0912 26.8859 23.9207C29.7835 21.426 30.7848 18.2703 29.9539 14.5816C29.4213 12.2362 28.0364 10.4239 26.0976 9.03794C24.2014 7.67333 22.0709 7.14028 19.7699 7.48144C17.3837 7.82259 15.4235 8.99529 13.8896 10.8503C11.8655 13.345 11.2903 16.1595 12.0999 19.2725C12.6751 21.49 13.9748 23.217 15.8497 24.4964C15.9349 24.5603 16.0201 24.6456 16.0414 24.7522C16.1266 25.0294 16.1692 25.3279 16.2332 25.6051C16.5101 26.8418 16.7658 28.0785 17.0428 29.2938C17.0854 29.507 17.1919 29.5923 17.4263 29.5923C19.8338 29.5923 22.2413 29.5923 24.6275 29.5923C24.7128 29.5923 24.798 29.5923 24.8832 29.5923L24.9045 29.571Z" fill="#27AAE1"/>
<path d="M27.1846 31.4043C27.0355 32.1506 26.9076 32.8755 26.7585 33.6431C26.652 33.6431 26.5668 33.6431 26.4815 33.6431C22.817 33.6431 19.1311 33.6431 15.4666 33.6431C15.2535 33.6431 15.1896 33.6005 15.147 33.3872C15.0405 32.7263 14.8913 32.0653 14.7422 31.4043H27.1846Z" fill="black"/>
<path d="M26.7131 34.1553C26.6705 34.4538 26.6066 34.731 26.5639 35.0082C26.4787 35.4986 26.1591 35.8824 25.9035 36.2875C25.8609 36.3301 25.7543 36.3514 25.6691 36.3514C22.5585 36.3514 19.4266 36.3514 16.316 36.3514C16.2095 36.3514 16.0816 36.2448 16.0177 36.1595C15.549 35.5838 15.3785 34.9015 15.3359 34.1553H26.7131Z" fill="black"/>
<path d="M17.8104 36.8848H24.479C24.3086 37.2259 24.1807 37.5457 24.0316 37.8229C23.6268 38.5905 23.6268 38.5905 22.945 38.5905C21.5814 38.5905 20.2179 38.5905 18.833 38.5905C18.7052 38.5905 18.5987 38.5479 18.5348 38.3986C18.343 38.0148 18.13 37.6524 17.9382 37.2686C17.8956 37.162 17.853 37.034 17.7891 36.8848H17.8104Z" fill="black"/>
<path d="M53.2422 27.764V14.2272H58.0847C59.5698 14.2272 60.7144 14.5069 61.5185 15.0662C62.3227 15.6255 62.7248 16.4003 62.7248 17.3908C62.7248 18.1248 62.4753 18.7686 61.9764 19.3221C61.4775 19.8756 60.8494 20.2572 60.0922 20.4669V20.5019C61.0431 20.6184 61.8091 20.968 62.3902 21.5506C62.9772 22.1332 63.2707 22.8643 63.2707 23.7441C63.2707 24.9734 62.8304 25.9521 61.95 26.6804C61.0695 27.4028 59.8662 27.764 58.3401 27.764H53.2422ZM56.1477 16.377V19.7241H57.53C58.1933 19.7241 58.7157 19.5668 59.0973 19.2522C59.4788 18.9376 59.6696 18.4977 59.6696 17.9326C59.6696 16.8955 58.9065 16.377 57.3804 16.377H56.1477ZM56.1477 21.9001V25.6142H57.8734C58.6071 25.6142 59.1795 25.4453 59.5903 25.1074C60.0071 24.7695 60.2155 24.3005 60.2155 23.7004C60.2155 23.1294 60.01 22.6866 59.5991 22.372C59.1883 22.0574 58.6042 21.9001 57.847 21.9001H56.1477Z" fill="#231F20"/>
<path d="M68.4654 14.2272V27.764H65.5599V14.2272H68.4654Z" fill="#231F20"/>
<path d="M82.7113 26.8552C81.3789 27.6184 79.7412 28 77.7983 28C75.6265 28 73.9125 27.3941 72.6564 26.1823C71.4003 24.9705 70.7722 23.3129 70.7722 21.2097C70.7722 19.0774 71.4619 17.3442 72.8413 16.01C74.2266 14.67 76.0491 14 78.309 14C79.7647 14 81.0355 14.2039 82.1214 14.6117V17.3471C81.0648 16.7353 79.7735 16.4295 78.2474 16.4295C76.9325 16.4295 75.8672 16.8548 75.0513 17.7054C74.2354 18.556 73.8274 19.6775 73.8274 21.0699C73.8274 22.4856 74.1943 23.5897 74.928 24.382C75.6676 25.1744 76.6743 25.5705 77.948 25.5705C78.7052 25.5705 79.3245 25.454 79.8058 25.221V22.4419H77.0499V20.1261H82.7113V26.8552Z" fill="#231F20"/>
<path d="M93.6995 14.2272V27.764H90.794V14.2272H93.6995Z" fill="#231F20"/>
<path d="M96.8604 27.764V14.2272H101.571C106.413 14.2272 108.835 16.4266 108.835 20.8252C108.835 22.9168 108.157 24.5976 106.801 25.8677C105.445 27.1319 103.696 27.764 101.553 27.764H96.8604ZM99.7659 16.5868V25.4045H101.351C102.73 25.4045 103.813 24.9967 104.6 24.181C105.386 23.3654 105.779 22.2613 105.779 20.8689C105.779 19.5231 105.369 18.4744 104.547 17.7228C103.725 16.9655 102.657 16.5868 101.342 16.5868H99.7659Z" fill="#231F20"/>
<path d="M119.215 27.764H111.142V14.2272H118.898V16.5868H114.047V19.7765H118.555V22.1273H114.047V25.4045H119.215V27.764Z" fill="#231F20"/>
<path d="M133.294 27.764H130.124L129.103 24.6617H124.146L123.142 27.764H119.99L124.982 14.2272H128.399L133.294 27.764ZM128.416 22.4332L126.867 17.7403C126.767 17.4432 126.696 17.0499 126.655 16.5605H126.576C126.541 16.9567 126.462 17.3383 126.338 17.7054L124.78 22.4332H128.416Z" fill="#231F20"/>
<path d="M138.066 14.2272L137.714 23.5955H135.407L135.073 14.2272H138.066ZM134.914 26.4707C134.914 26.0337 135.075 25.6754 135.398 25.3958C135.721 25.1161 136.117 24.9763 136.587 24.9763C137.062 24.9763 137.456 25.119 137.767 25.4045C138.084 25.6841 138.242 26.0395 138.242 26.4707C138.242 26.8901 138.09 27.2455 137.784 27.5368C137.479 27.8281 137.112 27.9738 136.684 27.9738C136.144 27.9738 135.712 27.8281 135.389 27.5368C135.073 27.2455 134.914 26.8901 134.914 26.4707Z" fill="#231F20"/>
</svg>
