<svg xmlns="http://www.w3.org/2000/svg" width="287" height="85" viewBox="0 0 287 85"><g><g><g><g><path fill="#eb0028" d="M.075.586h84.06v84.291H.075z"></path></g><g class="fillBlack"><g><path fill="#fff" d="M196.562 41.527V29.996c0-.614 0-1.38-.235-2.012-.301-.812-.932-1.247-1.827-1.247-.725 0-1.281.199-1.667.586-.678.69-.669 1.804-.66 2.88v11.324h-6.79v-18.86h6.367v2.776s.17-.264.423-.642c.83-1.2 2.845-2.522 5.237-2.522.96 0 1.884.152 2.675.435.914.33 1.62.812 2.11 1.454 1.149 1.502 1.149 3.608 1.149 5.648v11.72h-6.782z"></path></g><g><path fill="#fff" d="M258.102 17.312h6.791v3.267h-6.79z"></path></g><g><path fill="#fff" d="M258.102 22.667h6.791v18.87h-6.79z"></path></g><g><path fill="#fff" d="M101.154 41.527V17.312h7.327v18.454h8.411v5.761z"></path></g><g><path fill="#fff" d="M130.756 28.522c.367 1.18.367 2.626.367 3.485 0 2.522-.282 4.118-.876 5.034-.593.916-1.403 1.039-2.185 1.039-.79 0-1.591-.132-2.185-1.039-.593-.925-.876-2.522-.876-5.034 0-.86 0-2.304.368-3.485.574-1.85 1.78-2.238 2.693-2.238.914 0 2.12.387 2.694 2.238zm4.671 10.71a9.095 9.095 0 0 0 2.204-3.04c.537-1.2.81-2.523.81-3.92 0-2.938-1.017-5.46-2.957-7.273-1.874-1.756-4.502-2.72-7.422-2.72s-5.547.964-7.421 2.72c-1.931 1.823-2.958 4.335-2.958 7.273 0 1.397.273 2.72.81 3.92a8.967 8.967 0 0 0 2.204 3.04c1.903 1.729 4.52 2.682 7.365 2.682 2.845 0 5.454-.953 7.365-2.682z"></path></g><g><path fill="#fff" d="M154.33 41.527l-2.891-12.145-3.005 12.145h-4.84l-6.076-18.86h6.697l2.882 10.776 2.769-10.776h5.058l2.75 10.776 3.051-10.776h4.474l-5.962 18.86z"></path></g><g><path fill="#fff" d="M177.369 29.769v.406h-6.301v-.406c0-2.38 1.168-3.797 3.127-3.797 2.11 0 3.174 1.285 3.174 3.797zm2.92 10.37a8.606 8.606 0 0 0 3.447-4.675l-5.981.01c-.5 1.935-1.94 2.21-3.306 2.21-2.26 0-3.4-1.36-3.4-4.062v-.406h12.78v-.633c0-3.079-.932-5.676-2.693-7.49-1.78-1.84-3.956-2.804-7.026-2.804-1.385 0-2.402.245-3.664.718-1.375.51-2.533 1.246-3.447 2.2-1.714 1.757-2.76 4.496-2.722 7.14v.01c-.038 2.739 1.074 5.317 3.052 7.083 1.893 1.662 4.002 2.474 7.252 2.474 2.298 0 4.022-.613 5.707-1.775z"></path></g><g><path fill="#fff" d="M279.096 41.527V29.996c0-.614 0-1.38-.235-2.012-.302-.812-.933-1.247-1.828-1.247-.725 0-1.28.199-1.667.586-.687.69-.668 1.804-.659 2.88v11.324h-6.79v-18.86h6.366v2.776s.17-.264.424-.642c.829-1.2 2.844-2.522 5.237-2.522.96 0 1.883.152 2.675.435.913.33 1.62.812 2.11 1.454 1.148 1.502 1.148 3.608 1.148 5.648v11.72h-6.78z"></path></g><g><path fill="#fff" d="M213.412 42.132c-2.392 0-4.154-.35-5.557-1.105-1.479-.803-2.533-2.069-3.202-3.854l5.284-.538c1.026 1.69 2.608 1.681 3.57 1.681h.31c.932 0 3.334-.321 3.334-1.785 0-1.039-1.262-1.7-3.758-1.974l-.16-.028c-2.034-.283-4.144-.576-5.755-1.426-1.78-.945-2.618-2.39-2.618-4.562 0-1.001.254-1.936.763-2.777.48-.793 1.177-1.482 2.072-2.04 1.582-.982 3.513-1.435 6.084-1.435 1.846 0 3.673.444 5.133 1.256 1.47.812 2.553 1.983 3.174 3.4l-5 .727c-.622-1.095-1.903-1.69-3.655-1.69-.716 0-1.394.122-1.903.33-.829.36-.96.85-.96 1.115 0 1.03 1.054 1.294 1.45 1.397.66.18 1.658.284 2.543.388.292.028.575.056.81.094l.217.028c1.667.218 3.55.463 4.954 1.37 1.686 1.077 2.58 2.692 2.58 4.665 0 2.305-1.083 4.08-3.202 5.27-1.686.945-4.06 1.493-6.508 1.493z"></path></g><g><path fill="#fff" d="M231.26 41.99c-1.724 0-3.25-.67-4.417-1.946-1.357-1.463-1.357-3.192-1.357-5.194v-7.99h-2.053v-4.193h2.166v-5.355h6.593v5.355h4.088v4.193h-4.003v7.489c-.01.832-.01 1.615.5 2.135.338.34.847.5 1.563.5.659 0 1.394-.132 1.959-.255v4.666c-1.677.472-3.928.595-5.04.595z"></path></g><g><path fill="#fff" d="M249.947 29.769v.406h-6.3v-.406c0-2.38 1.167-3.797 3.126-3.797 2.11 0 3.174 1.285 3.174 3.797zm2.93 10.37a8.606 8.606 0 0 0 3.446-4.675l-5.98.01c-.49 1.935-1.94 2.21-3.306 2.21-2.26 0-3.4-1.36-3.4-4.062v-.406h12.771v-.633c0-3.079-.932-5.676-2.694-7.49-1.78-1.84-3.955-2.804-7.026-2.804-1.384 0-2.401.245-3.663.718-1.376.51-2.534 1.246-3.448 2.2-1.714 1.757-2.76 4.496-2.722 7.14v.01c-.037 2.739 1.074 5.317 3.052 7.083 1.893 1.662 4.003 2.474 7.252 2.474 2.298 0 4.022-.613 5.717-1.775z"></path></g><g><g><path fill="#fff" d="M226.796 54.57a5.912 5.912 0 0 0-1.055-.094c-1.121 0-2.694.16-3.466 1.558-.594 1.058-.594 2.399-.594 3.58v8.14h-6.79v-18.86h6.367v2.767s.17-.264.423-.642c.81-1.18 2.77-2.465 5.096-2.512v6.063z"></path></g><g><path fill="#fff" d="M154.585 67.754V56.223c0-.614 0-1.38-.236-2.012-.301-.812-.932-1.247-1.827-1.247-.716 0-1.281.199-1.667.586-.688.69-.669 1.804-.66 2.88v11.324h-6.79v-18.86h6.367v2.777s.17-.265.424-.643c.828-1.2 2.844-2.521 5.236-2.521.96 0 1.884.15 2.675.434.914.321 1.62.812 2.11 1.445 1.149 1.511 1.149 3.608 1.149 5.648v11.72h-6.781z"></path></g><g><path fill="#fff" d="M110.431 67.906c-2.534 0-4.775-.605-6.48-1.748-1.742-1.17-2.938-2.88-3.579-5.08l6.188-.898c.697 2.012 1.987 2.871 4.267 2.871 1.12 0 3.249-.444 3.249-2.106 0-1.747-1.969-2.116-3.146-2.342-.056-.01-.103-.02-.16-.029-2.317-.453-4.737-.972-6.574-2.058-2.072-1.228-3.08-2.985-3.08-5.393 0-2.248 1.13-4.44 2.939-5.724 1.752-1.208 4.144-1.879 6.734-1.879 2.128 0 4.106.482 5.707 1.398 1.63.935 2.817 2.257 3.514 3.948l-5.51 1.303c-.904-1.927-2.458-2.21-4.022-2.21-1.366 0-2.825.765-2.825 2.182 0 1.473 1.704 1.841 2.73 2.058.104.02.19.038.274.057h.01c.263.057.517.104.781.151 2.035.397 4.144.803 5.971 1.747 1.093.586 1.95 1.398 2.534 2.409.575.991.857 2.134.857 3.39 0 1.313-.31 2.503-.923 3.551-.565.954-1.375 1.785-2.411 2.465-1.846 1.228-4.417 1.937-7.045 1.937z"></path></g><g><path fill="#fff" d="M134.853 58.508v.84c0 1.02 0 2.286-.414 3.26-.48 1.151-1.46 1.728-2.91 1.728-1.527 0-2.402-.813-2.402-2.22 0-1.993 1.77-3.192 5.274-3.56zm-.367 7.074l.744-1.095v1.322c0 .793.056 1.294.188 1.945h6.423c-.395-1.265-.433-2.568-.433-3.91v-7.716c.01-1.209.019-2.36-.245-3.38-.292-1.106-.876-1.937-1.855-2.626-1.856-1.332-4.794-1.615-6.942-1.615-2.486 0-4.51.406-6.037 1.218a6.494 6.494 0 0 0-2.175 1.842c-.528.708-.914 1.558-1.15 2.521l5.944.085c.602-1.54 1.638-1.85 3.192-1.85 2.26 0 2.713 1.095 2.713 2.87v.539l-.377.019c-1.959.113-4.879.368-7.62 1.208-1.384.425-2.561 1.143-3.418 2.06-.96 1.029-1.441 2.238-1.441 3.598 0 1.71.65 3.135 1.893 4.117 1.14.907 2.75 1.408 4.53 1.408 2.609 0 4.643-.435 6.066-2.56z"></path></g><g><path fill="#fff" d="M185.392 43.52h6.79v24.244h-6.79z"></path></g><g><path fill="#fff" d="M175.249 54.655c.357 1.18.357 2.626.357 3.485 0 2.512-.273 3.759-.866 4.675-.593.916-1.403 1.039-2.185 1.039-.791 0-1.592-.123-2.185-1.039-.603-.916-.876-2.163-.876-4.675 0-.86 0-2.304.367-3.485.575-1.851 1.78-2.238 2.694-2.238.913 0 2.119.387 2.694 2.238zm.207 10.71l.122-.236v2.616h6.79V43.501h-6.79v7.575l-.687-.69c-.857-.86-2.317-1.88-4.399-1.88-2.571 0-4.511 1.04-5.792 3.08-1.356 2.162-1.639 4.91-1.639 6.837 0 2.616.575 4.987 1.62 6.668 1.262 2.021 3.136 3.05 5.576 3.05 2.392 0 4.182-.812 5.199-2.776z"></path></g><g><path fill="#fff" d="M206.914 55.996v.406h-6.3v-.406c0-2.38 1.167-3.797 3.126-3.797 2.11 0 3.174 1.275 3.174 3.797zm2.939 10.38A8.606 8.606 0 0 0 213.3 61.7l-5.98.009c-.5 1.936-1.94 2.21-3.307 2.21-2.26 0-3.4-1.36-3.4-4.061v-.406h12.762v-.633c0-3.088-.932-5.686-2.693-7.499-1.78-1.832-3.956-2.805-7.027-2.805-1.384 0-2.401.246-3.663.718-1.375.51-2.534 1.247-3.447 2.2-1.715 1.757-2.76 4.496-2.722 7.14v.01c-.038 2.739 1.073 5.327 3.051 7.083 1.893 1.662 4.003 2.475 7.252 2.475 2.299 0 4.022-.614 5.727-1.766z"></path></g></g></g><g><g><path fill="#fff" d="M10.944 65.204V20.258h13.883v34.01l8.147.01c.518 1.595 1.846 4.825 4.897 7.753 2.43 2.323 3.956 3.183 3.956 3.183z"></path></g><g><path fill="#fff" d="M55.446 66.281c-4.897 0-9.23-1.171-12.526-3.381-3.363-2.257-5.689-5.563-6.923-9.822l11.962-1.729c1.346 3.882 3.842 5.554 8.24 5.554 2.167 0 6.273-.85 6.273-4.061 0-3.381-3.805-4.1-6.074-4.524-.104-.02-.208-.038-.302-.057-4.483-.869-9.164-1.889-12.696-3.967-4.003-2.36-5.943-5.77-5.943-10.426 0-4.345 2.176-8.585 5.68-11.06 3.38-2.342 8.005-3.636 13.016-3.636 4.115 0 7.93.935 11.02 2.692 3.154 1.804 5.443 4.373 6.79 7.631L63.32 32.017c-1.742-3.73-4.756-4.26-7.76-4.26-2.647 0-5.454 1.474-5.454 4.212 0 2.853 3.306 3.561 5.274 3.977.189.037.368.085.537.113l.019.01c.5.103 1.008.198 1.507.292 3.937.756 8.006 1.549 11.547 3.372 2.12 1.133 3.758 2.691 4.888 4.656 1.111 1.917 1.667 4.118 1.667 6.545 0 2.531-.603 4.845-1.79 6.857-1.082 1.841-2.646 3.447-4.652 4.76-3.626 2.38-8.6 3.73-13.657 3.73z"></path></g></g></g></g></g></svg>