<?xml version="1.0" encoding="UTF-8" standalone="no"?>
<svg
   data-name="Layer 2"
   width="271.388"
   height="64.98"
   viewBox="0 0 271.388 64.98"
   version="1.1"
   id="svg64"
   sodipodi:docname="rccb.svgz"
   xmlns:inkscape="http://www.inkscape.org/namespaces/inkscape"
   xmlns:sodipodi="http://sodipodi.sourceforge.net/DTD/sodipodi-0.dtd"
   xmlns="http://www.w3.org/2000/svg"
   xmlns:svg="http://www.w3.org/2000/svg">
  <defs
     id="defs68" />
  <sodipodi:namedview
     id="namedview66"
     pagecolor="#ffffff"
     bordercolor="#000000"
     borderopacity="0.25"
     inkscape:showpageshadow="2"
     inkscape:pageopacity="0.0"
     inkscape:pagecheckerboard="0"
     inkscape:deskcolor="#d1d1d1" />
  <g
     data-name="Layer 1"
     id="g62">
    <path
       data-name="Rectangle 7"
       fill="#3170b7"
       d="M0 0h71.82v64.98H0z"
       id="path2" />
    <path
       data-name="Path 8"
       d="M32.526 30.48h-3.24l-4.542-6.4h-8.468v6.4H13.49V13.695h13.235a5.788 5.788 0 0 1 4.154 1.427 5.068 5.068 0 0 1 1.5 3.86 4.808 4.808 0 0 1-1.23 3.428A5.334 5.334 0 0 1 28 23.938zm-6.215-8.9q3.23 0 3.23-2.595 0-2.787-3.473-2.787H16.28v5.38z"
       fill="#fff"
       id="path4" />
    <path
       data-name="Path 9"
       d="M58.19 17.52l-2.533.9a9.34 9.34 0 0 0-7.135-2.715 8.668 8.668 0 0 0-5.668 1.787 5.6 5.6 0 0 0-2.18 4.54 5.62 5.62 0 0 0 2.154 4.635 9.014 9.014 0 0 0 5.854 1.754 9.068 9.068 0 0 0 7-2.76L58.07 27a10.842 10.842 0 0 1-4.067 3 14.423 14.423 0 0 1-5.454.935 11.916 11.916 0 0 1-7.4-2.22 8.237 8.237 0 0 1 .08-13.3 11.8 11.8 0 0 1 7.335-2.247q6.25-.006 9.617 4.35z"
       fill="#fff"
       id="path6" />
    <path
       data-name="Path 10"
       d="M33.08 39.38l-2.527.9a9.35 9.35 0 0 0-7.14-2.713 8.668 8.668 0 0 0-5.67 1.774 5.888 5.888 0 0 0 0 9.15 9 9 0 0 0 5.85 1.755 9.034 9.034 0 0 0 7-2.76l2.395 1.334a10.9 10.9 0 0 1-4.094 3.047 14.43 14.43 0 0 1-5.46.94 11.91 11.91 0 0 1-7.43-2.225 8.228 8.228 0 0 1 .048-13.335A11.81 11.81 0 0 1 23.387 35q6.34.033 9.693 4.394z"
       fill="#fff"
       id="path8" />
    <path
       data-name="Path 11"
       d="M56.332 43.69a4.047 4.047 0 0 1 2.874 4.24q0 4.414-6.348 4.408H39.475V35.554h13.57a5.935 5.935 0 0 1 4 1.254 4.174 4.174 0 0 1 1.46 3.33 3.9 3.9 0 0 1-2.173 3.55zm-3.24-1.115a2.894 2.894 0 0 0 1.933-.667 2.08 2.08 0 0 0 .773-1.62 2.047 2.047 0 0 0-.667-1.634 2.827 2.827 0 0 0-1.9-.607H42.27v4.522zm-.217 7.264q3.48 0 3.48-2.3 0-2.45-3.04-2.46H42.262v4.75z"
       fill="#fff"
       id="path10" />
    <path
       data-name="Path 12"
       d="M84.684 18.597v6c0 1.814.98 1.84 2.354 1.86v.667c-1.24 0-2.354-.047-3.494-.047s-2.454 0-3.747.047v-.666c1.294.08 2.354-.253 2.354-1.727V11.62c0-1.807-.98-1.834-2.35-1.86v-.67c1.42 0 2.67.052 3.93.052.91 0 1.817-.052 3.47-.052 4.89 0 6 2.74 6 4.574a4.76 4.76 0 0 1-3.673 4.42c2.354 3.442 3.594 5.51 4.708 6.75a3.727 3.727 0 0 0 2.92 1.626v.667c-.665 0-1.292-.047-1.94-.047s-1.472 0-2.2.047a60.756 60.756 0 0 1-5.94-8.528zm1.554-8.668a8.915 8.915 0 0 0-1.554.15v7.55a7.422 7.422 0 0 0 1.334.13c3.18 0 4.42-2.094 4.42-3.954.02-2.254-1.166-3.907-4.213-3.907z"
       fill="#fff"
       id="path12" />
    <path
       data-name="Path 13"
       d="M104.78 15.336c3.595 0 6.282 2.38 6.282 6.055a6.075 6.075 0 0 1-5.948 6.16 6.107 6.107 0 1 1-.333-12.21zm.314 11.536c2.58 0 3.587-3 3.587-5.228 0-2.114-1.13-5.634-3.87-5.634-2.56 0-3.56 3-3.56 5.22 0 2.108 1.134 5.615 3.854 5.615z"
       fill="#fff"
       id="path14" />
    <path
       data-name="Path 14"
       d="M112.85 15.703c1.006 0 2 .047 2.993.047.78 0 1.554-.047 2.327-.047v.667c-.487.053-1.42 0-1.42.7s2.327 5.895 2.607 6.935h.047c.547-1.5 2.56-5.84 2.56-6.568 0-1.087-.826-1.087-1.446-1.087v-.667c.8 0 1.627.047 2.434.047.667 0 1.287 0 1.934-.047v.667c-1.214 0-1.574.667-2.04 1.66l-5.84 13.7c-.388.907-.908 1.294-1.655 1.294a1.214 1.214 0 0 1-1.26-1.24 1.372 1.372 0 0 1 2.337-.88c1.267-2.667 1.807-4.167 1.807-4.167s-3.44-8.788-3.747-9.375a1.554 1.554 0 0 0-1.63-.96z"
       fill="#fff"
       id="path16" />
    <path
       data-name="Path 15"
       d="M128.54 20.004a6.32 6.32 0 0 0 0 1.5c.152 2.454 1.733 4.474 3.8 4.474a4.96 4.96 0 0 0 3.486-1.734l.36.36c-1.187 1.58-2.667 2.927-4.78 2.927-4.108 0-4.935-4-4.935-5.64 0-5.06 3.41-6.56 5.23-6.56a4.116 4.116 0 0 1 4.37 4.06 2.74 2.74 0 0 1 0 .47l-.233.153zm4.573-.827c.667 0 .727-.333.727-.667a2.194 2.194 0 0 0-2.254-2.374c-1.574 0-2.667 1.16-2.974 3.02z"
       fill="#fff"
       id="path18" />
    <path
       data-name="Path 16"
       d="M137.948 26.452h.667c.727 0 1.247 0 1.247-.847v-7.268c0-.8-.96-.954-1.334-1.16v-.393c1.9-.78 2.934-1.447 3.167-1.447s.233.08.233.34v2.327h.053c.67-1.014 1.73-2.667 3.34-2.667a1.414 1.414 0 0 1 1.45 1.334 1.254 1.254 0 0 1-1.213 1.34c-.8 0-.8-.62-1.707-.62a2.18 2.18 0 0 0-1.887 2.14v6.08c0 .85.513.85 1.24.85h1.447v.67c-1.42 0-2.507-.047-3.62-.047s-2.148 0-3.075.047z"
       fill="#fff"
       id="path20" />
    <path
       data-name="Path 17"
       d="M172.742 13.763h-.667c-.487-3.027-2.634-4.24-5.528-4.24s-7.295 2-7.295 8.194c0 5.22 3.727 8.968 7.708 8.968a5.254 5.254 0 0 0 5.194-4.467l.594.153-.593 3.78a14.5 14.5 0 0 1-5.714 1.378c-6.04 0-9.87-3.907-9.87-9.722 0-5.333 4.74-9.1 9.8-9.1a18.744 18.744 0 0 1 6.1 1.368z"
       fill="#fff"
       id="path22" />
    <path
       data-name="Path 18"
       d="M181.016 15.336c3.594 0 6.28 2.38 6.28 6.055a6.08 6.08 0 0 1-5.927 6.13 6.094 6.094 0 1 1-.36-12.18zm.307 11.536c2.587 0 3.594-3 3.594-5.228 0-2.114-1.14-5.634-3.874-5.634-2.56 0-3.574 3-3.574 5.22 0 2.108 1.14 5.615 3.85 5.615z"
       fill="#fff"
       id="path24" />
    <path
       data-name="Path 19"
       d="M195.646 15.336c3.594 0 6.28 2.38 6.28 6.055a6.075 6.075 0 0 1-5.947 6.16 5.966 5.966 0 0 1-6.26-6.05 5.955 5.955 0 0 1 5.92-6.154zm.307 11.536c2.587 0 3.594-3 3.594-5.228 0-2.114-1.134-5.634-3.874-5.634-2.56 0-3.567 3-3.567 5.22 0 2.108 1.134 5.615 3.847 5.615z"
       fill="#fff"
       id="path26" />
    <path
       data-name="Path 20"
       d="M207.894 31.727c0 .627.667.627 1.22.627h1.16v.666c-1.114 0-2.194-.047-3.334-.047s-2.147 0-3.207.047v-.667h.98c.96 0 1.087-.44 1.087-.833V19.27c0-1.966-.773-1.86-1.527-2.226v-.374c1.014-.467 2-.954 3.054-1.394.08 0 .18-.107.26-.107s.28 0 .28.23v1.83a6.227 6.227 0 0 1 3.907-1.917c2.894 0 4.754 2.794 4.754 5.51a6.6 6.6 0 0 1-6.36 6.7 6.435 6.435 0 0 1-2.3-.495zm2.3-14.707a4.427 4.427 0 0 0-2.3.854v7.035a3.154 3.154 0 0 0 2.767 1.76c2.51 0 3.83-2.58 3.83-4.81 0-2.468-1.5-4.85-4.29-4.85z"
       fill="#fff"
       id="path28" />
    <path
       data-name="Path 21"
       d="M220.85 20.004a6.323 6.323 0 0 0 0 1.5c.154 2.454 1.735 4.474 3.8 4.474a4.96 4.96 0 0 0 3.488-1.734l.36.36c-1.187 1.58-2.667 2.927-4.78 2.927-4.108 0-4.935-4-4.935-5.64 0-5.06 3.407-6.56 5.22-6.56a4.116 4.116 0 0 1 4.37 4.06 2.74 2.74 0 0 1 0 .47l-.234.153zm4.575-.827c.667 0 .727-.333.727-.667a2.194 2.194 0 0 0-2.254-2.374c-1.574 0-2.667 1.16-2.974 3.02z"
       fill="#fff"
       id="path30" />
    <path
       data-name="Path 22"
       d="M230.26 26.452h.7c.72 0 1.24 0 1.24-.847v-7.268c0-.8-.96-.954-1.335-1.16v-.393c1.847-.78 2.907-1.447 3.14-1.447s.234.08.234.34v2.327h.05c.66-1.014 1.73-2.667 3.33-2.667a1.414 1.414 0 0 1 1.444 1.334 1.254 1.254 0 0 1-1.214 1.34c-.8 0-.8-.62-1.707-.62a2.18 2.18 0 0 0-1.89 2.14v6.08c0 .85.514.85 1.24.85h1.448v.67c-1.42 0-2.506-.047-3.62-.047s-2.15 0-3.074.047z"
       fill="#fff"
       id="path32" />
    <path
       data-name="Path 23"
       d="M96.512 43.062h-.667c-.493-3.027-2.667-4.24-5.534-4.24s-7.28 2-7.28 8.194c0 5.22 3.72 8.968 7.7 8.968a5.248 5.248 0 0 0 5.196-4.474l.6.16-.6 3.774a14.567 14.567 0 0 1-5.714 1.334c-6.05 0-9.875-3.9-9.875-9.722 0-5.294 4.734-9.1 9.8-9.1a18.61 18.61 0 0 1 6.12 1.38z"
       fill="#fff"
       id="path34" />
    <path
       data-name="Path 24"
       d="M104.78 44.61c3.595 0 6.282 2.38 6.282 6.047a6.075 6.075 0 0 1-5.948 6.155 6.1 6.1 0 1 1-.333-12.2zm.314 11.528c2.58 0 3.587-2.994 3.587-5.22 0-2.12-1.13-5.635-3.87-5.635-2.56 0-3.56 3-3.56 5.22s1.133 5.635 3.854 5.635z"
       fill="#fff"
       id="path36" />
    <path
       data-name="Path 25"
       d="M114.81 40.5c0-1.68-.387-1.733-1.367-2v-.412a16.57 16.57 0 0 0 2.667-1.107 2.627 2.627 0 0 1 .58-.3c.16 0 .207.156.207.36v9.85c.233-.21 1.887-2.272 4-2.272 2.254 0 3.467 1.654 3.467 3.907v6.38c0 .855.567.855 1.294.855h.467v.67c-.907 0-1.814-.055-2.794-.055s-1.86 0-2.79.054v-.67h.47c1.217 0 1.297-.28 1.297-2.81v-2.93c0-1.888-.18-3.855-2.534-3.855a4.565 4.565 0 0 0-2.847 1.445v7.29c0 .856.573.856 1.294.856h.467v.667c-.906 0-1.806-.056-2.74-.056s-1.86 0-2.794.053v-.67h.468c.73 0 1.24 0 1.24-.858z"
       fill="#fff"
       id="path38" />
    <path
       data-name="Path 26"
       d="M129.986 49.29a6.323 6.323 0 0 0 0 1.5c.153 2.454 1.734 4.474 3.8 4.474a4.96 4.96 0 0 0 3.487-1.734l.367.36c-1.194 1.58-2.667 2.92-4.788 2.92-4.108 0-4.934-4-4.934-5.633 0-5.068 3.407-6.568 5.22-6.568a4.116 4.116 0 0 1 4.37 4.06 2.778 2.778 0 0 1 0 .46l-.234.15zm4.574-.827c.667 0 .727-.333.727-.667a2.194 2.194 0 0 0-2.254-2.38c-1.574 0-2.667 1.167-2.974 3.027z"
       fill="#fff"
       id="path40" />
    <path
       data-name="Path 27"
       d="M141.175 48.05c0-.96-.28-1.214-1.494-1.707v-.494a33.732 33.732 0 0 0 3.41-1.24c.08 0 .16.05.16.26v1.68c1.48-1.06 2.74-1.94 4.47-1.94 2.2 0 2.98 1.6 2.98 3.62v6.66c0 .853.573.853 1.294.853h.467v.667c-.906 0-1.813-.053-2.74-.053s-1.86 0-2.794.053v-.667h.468c.728 0 1.24 0 1.24-.856v-6.66c0-1.475-.906-2.195-2.38-2.195a6.815 6.815 0 0 0-2.993 1.24v7.622c0 .854.568.854 1.288.854h.468v.668c-.9 0-1.805-.06-2.74-.06s-1.86 0-2.786.054v-.668h.46c.724 0 1.24 0 1.24-.855z"
       fill="#fff"
       id="path42" />
    <path
       data-name="Path 28"
       d="M161.78 55.75c1.293.08 2.353-.252 2.353-1.733v-13.1c0-1.813-.98-1.84-2.354-1.86v-.67c.72 0 1.44.054 2.14.054h.77c1.473 0 2.433-.05 3.333-.05 1.914 0 6 .54 6 4.19 0 2.4-2.174 3.65-4.167 4.11v.055c1.94-.1 5.82 1.194 5.82 4.834 0 2.767-2.38 4.86-6.954 4.86-1.215 0-2.435-.05-3.648-.05s-2.276 0-3.39.05zm4.92-9.2h.98c2.094 0 3.934-.666 3.934-3.926 0-2.974-1.76-3.414-3.827-3.414a7.742 7.742 0 0 0-1.087.053zm0 6.93c0 1.166 0 2.12 2.327 2.12 3.074 0 4.087-2.095 4.087-3.695 0-3.7-2.307-4.528-4.86-4.528H166.7z"
       fill="#fff"
       id="path44" />
    <path
       data-name="Path 29"
       d="M177.522 55.75h.667c.72 0 1.24 0 1.24-.853v-7.26c0-.8-.96-.96-1.34-1.168v-.39c1.883-.8 2.923-1.48 3.15-1.48s.232.08.232.34v2.326h.052c.666-1.014 1.733-2.667 3.333-2.667a1.414 1.414 0 0 1 1.466 1.4 1.247 1.247 0 0 1-1.215 1.334c-.8 0-.8-.62-1.708-.62a2.187 2.187 0 0 0-1.887 2.147v6.075c0 .853.52.853 1.24.853h1.448v.666c-1.42 0-2.506-.052-3.613-.052s-2.145 0-3.08.052z"
       fill="#fff"
       id="path46" />
    <path
       data-name="Path 30"
       d="M199.24 55.418a4.005 4.005 0 0 1-2.56 1.394c-1.035 0-1.555-.98-1.6-1.914a5.788 5.788 0 0 1-4 1.914 2.6 2.6 0 0 1-2.796-2.503c.1-2.07 1.16-2.46 6.748-4.37v-1.71c0-1.45-.854-2.22-2.507-2.22a1.794 1.794 0 0 0-1.967 1.8c0 .72-.827 1.085-1.447 1.085a.473.473 0 0 1-.46-.52c0-1.334 1.17-2 2.977-2.947a4.422 4.422 0 0 1 2.327-.827c1.16 0 3.154.753 3.154 2.174v7.16c0 1.06.36 1.475.934 1.475a1.274 1.274 0 0 0 .954-.44zm-4.187-4.74c-1.334.52-4.668 1.113-4.668 3.053a1.867 1.867 0 0 0 1.834 1.86 4.265 4.265 0 0 0 2.84-1.5z"
       fill="#fff"
       id="path48" />
    <path
       data-name="Path 31"
       d="M212.316 55.005c0 .467.287.493.727.493h1.034v.513a27.084 27.084 0 0 0-3.72.8l-.134-.07v-2.06c-1.547 1.27-2.734 2.17-4.574 2.17a2.784 2.784 0 0 1-2.85-3.07v-6.66c0-.667-.108-1.334-1.555-1.447v-.493c.934 0 3-.18 3.334-.18s.287.18.287.75v6.663c0 .772 0 3 2.247 3a5.694 5.694 0 0 0 3.126-1.58V46.88c0-.512-1.24-.8-2.166-1.06v-.48c2.326-.16 3.773-.366 4-.366s.206.18.206.467z"
       fill="#fff"
       id="path50" />
    <path
       data-name="Path 32"
       d="M217.436 48.05c0-.96-.287-1.214-1.5-1.707v-.494a33.24 33.24 0 0 0 3.44-1.24c.074 0 .154.05.154.26v1.68c1.474-1.06 2.74-1.94 4.474-1.94 2.194 0 2.974 1.6 2.974 3.62v6.66c0 .853.567.853 1.294.853h.44v.667c-.9 0-1.807-.053-2.74-.053s-1.86 0-2.788.053v-.667h.46c.727 0 1.247 0 1.247-.856v-6.66c0-1.475-.9-2.195-2.38-2.195a6.835 6.835 0 0 0-3 1.24v7.622c0 .854.57.854 1.3.854h.47v.668c-.906 0-1.813-.06-2.74-.06s-1.86 0-2.794.054v-.668h.467c.72 0 1.24 0 1.24-.855z"
       fill="#fff"
       id="path52" />
    <path
       data-name="Path 33"
       d="M237.914 44.996v1.4h-3.287v8.735c0 .62.667.62 1.214.62h1.17v.67c-1.11 0-2.2-.05-3.33-.05s-2.144 0-3.204.057v-.667h.98c.954 0 1.087-.44 1.087-.827V46.4h-1.814v-.44c.6-.36 1.814-.754 1.814-1.628a8.78 8.78 0 0 1 2.068-5.874 5.282 5.282 0 0 1 3.155-1.78 1.025 1.025 0 0 1 1.168 1.06.887.887 0 0 1-.873 1.007c-.773 0-.773-.36-1.654-.36-1.58 0-1.734 1.86-1.734 2.922V45z"
       fill="#fff"
       id="path54" />
    <path
       data-name="Path 34"
       d="M241.482 49.29a6.32 6.32 0 0 0 0 1.5c.153 2.454 1.727 4.474 3.794 4.474a4.974 4.974 0 0 0 3.494-1.734l.36.36c-1.187 1.58-2.667 2.92-4.78 2.92-4.115 0-4.942-4-4.942-5.633 0-5.068 3.414-6.568 5.22-6.568a4.118 4.118 0 0 1 4.375 4.06 2.772 2.772 0 0 1 0 .46l-.233.15zm4.568-.827c.667 0 .72-.333.72-.667a2.194 2.194 0 0 0-2.247-2.38c-1.58 0-2.667 1.167-2.974 3.027z"
       fill="#fff"
       id="path56" />
    <path
       data-name="Path 35"
       d="M251.097 55.75h.487c.727 0 1.24 0 1.24-.853v-14.4c0-1.68-.387-1.734-1.367-2v-.413a16.57 16.57 0 0 0 2.667-1.107 2.628 2.628 0 0 1 .593-.307c.16 0 .207.153.207.36v17.868c0 .854.573.854 1.294.854h.44v.667c-.88 0-1.78-.06-2.714-.06s-1.86 0-2.814.05z"
       fill="#fff"
       id="path58" />
    <path
       data-name="Path 36"
       d="M269.68 54.204c0 1.06.26 1.06 1.267 1.06h.44v.513c-.387.08-1.087.287-1.834.52s-1.474.513-1.627.513c-.26 0-.287-.387-.287-.667v-1.22h-.06a5.8 5.8 0 0 1-3.957 1.888c-3.1 0-4.808-2.71-4.808-5.6a6.56 6.56 0 0 1 6.38-6.593 6.4 6.4 0 0 1 2.434.467V40.5c0-1.68-.388-1.733-1.375-2v-.412a16.67 16.67 0 0 0 2.666-1.107 2.347 2.347 0 0 1 .567-.28c.15 0 .205.156.205.36zm-2.067-6.388c0-1.914-1.6-2.38-2.74-2.38-1.835 0-3.855 1.374-3.855 4.86 0 2.848 1.734 4.97 4.087 4.97.773 0 2.507-.574 2.507-1.528z"
       fill="#fff"
       id="path60" />
  </g>
</svg>
